<?xml version="1.0" standalone="no"?>
<!DOCTYPE svg PUBLIC "-//W3C//DTD SVG 20010904//EN"
 "http://www.w3.org/TR/2001/REC-SVG-20010904/DTD/svg10.dtd">
<svg version="1.0" xmlns="http://www.w3.org/2000/svg"
 width="128.000000pt" height="128.000000pt" viewBox="0 0 128.000000 128.000000"
 preserveAspectRatio="xMidYMid meet">
<metadata>
Created by potrace 1.14, written by Peter Selinger 2001-2017
</metadata>
<g transform="translate(0.000000,128.000000) scale(0.100000,-0.100000)"
fill="#000000" stroke="none">
<path d="M615 1142 c-15 -3 -335 -260 -365 -292 -3 -3 -57 -48 -120 -100 -110
-90 -130 -109 -130 -120 0 -12 66 -80 78 -80 7 0 137 104 289 231 152 126 279
226 282 222 3 -5 44 -40 91 -78 47 -38 90 -74 96 -80 6 -5 33 -28 60 -50 27
-22 104 -86 172 -143 68 -57 131 -102 139 -100 23 4 75 72 68 89 -3 8 -26 29
-50 47 -24 18 -63 52 -87 75 l-44 42 1 163 c1 95 -3 166 -9 169 -12 8 -172 7
-184 -1 -5 -3 -10 -40 -10 -82 0 -41 -2 -77 -4 -79 -2 -2 -48 34 -103 79 -98
81 -130 98 -170 88z"/>
<path d="M410 752 l-226 -187 1 -201 c0 -155 4 -205 14 -218 12 -14 37 -16
177 -15 l164 1 0 151 0 152 100 0 100 0 0 -152 0 -152 164 0 c138 0 167 3 178
16 10 12 13 66 14 217 l0 202 -224 184 c-123 102 -227 186 -231 187 -3 1 -107
-83 -231 -185z"/>
</g>
</svg>
